<svg width="1024" height="1024" viewBox="0 0 1024 1024" fill="none" xmlns="http://www.w3.org/2000/svg">
<rect x="106" y="119" width="812" height="812" rx="176" fill="url(#paint0_linear_557_90)"/>
<g filter="url(#filter0_d_557_90)">
<path d="M414 147C414 281.757 523.243 391 658 391C523.243 391 414 500.243 414 635C414 500.243 304.757 391 170 391C304.757 391 414 281.757 414 147Z" fill="#FBBC05"/>
</g>
<g filter="url(#filter1_d_557_90)">
<path d="M692 411C692 498.813 763.187 570 851 570C763.187 570 692 641.187 692 729C692 641.187 620.813 570 533 570C620.813 570 692 498.813 692 411Z" fill="#4FA264"/>
</g>
<g filter="url(#filter2_d_557_90)">
<path d="M533 609C533 675.274 586.726 729 653 729C586.726 729 533 782.726 533 849C533 782.726 479.274 729 413 729C479.274 729 533 675.274 533 609Z" fill="#F13B35"/>
</g>
<g filter="url(#filter3_d_557_90)">
<path d="M304 544C304 579.899 333.101 609 369 609C333.101 609 304 638.101 304 674C304 638.101 274.899 609 239 609C274.899 609 304 579.899 304 544Z" fill="#4285F4"/>
</g>
<defs>
<filter id="filter0_d_557_90" x="166" y="147" width="496" height="496" filterUnits="userSpaceOnUse" color-interpolation-filters="sRGB">
<feFlood flood-opacity="0" result="BackgroundImageFix"/>
<feColorMatrix in="SourceAlpha" type="matrix" values="0 0 0 0 0 0 0 0 0 0 0 0 0 0 0 0 0 0 127 0" result="hardAlpha"/>
<feOffset dy="4"/>
<feGaussianBlur stdDeviation="2"/>
<feComposite in2="hardAlpha" operator="out"/>
<feColorMatrix type="matrix" values="0 0 0 0 0 0 0 0 0 0 0 0 0 0 0 0 0 0 0.25 0"/>
<feBlend mode="normal" in2="BackgroundImageFix" result="effect1_dropShadow_557_90"/>
<feBlend mode="normal" in="SourceGraphic" in2="effect1_dropShadow_557_90" result="shape"/>
</filter>
<filter id="filter1_d_557_90" x="511" y="393" width="362" height="362" filterUnits="userSpaceOnUse" color-interpolation-filters="sRGB">
<feFlood flood-opacity="0" result="BackgroundImageFix"/>
<feColorMatrix in="SourceAlpha" type="matrix" values="0 0 0 0 0 0 0 0 0 0 0 0 0 0 0 0 0 0 127 0" result="hardAlpha"/>
<feOffset dy="4"/>
<feGaussianBlur stdDeviation="11"/>
<feComposite in2="hardAlpha" operator="out"/>
<feColorMatrix type="matrix" values="0 0 0 0 0 0 0 0 0 0 0 0 0 0 0 0 0 0 0.25 0"/>
<feBlend mode="normal" in2="BackgroundImageFix" result="effect1_dropShadow_557_90"/>
<feBlend mode="normal" in="SourceGraphic" in2="effect1_dropShadow_557_90" result="shape"/>
</filter>
<filter id="filter2_d_557_90" x="409" y="609" width="248" height="248" filterUnits="userSpaceOnUse" color-interpolation-filters="sRGB">
<feFlood flood-opacity="0" result="BackgroundImageFix"/>
<feColorMatrix in="SourceAlpha" type="matrix" values="0 0 0 0 0 0 0 0 0 0 0 0 0 0 0 0 0 0 127 0" result="hardAlpha"/>
<feOffset dy="4"/>
<feGaussianBlur stdDeviation="2"/>
<feComposite in2="hardAlpha" operator="out"/>
<feColorMatrix type="matrix" values="0 0 0 0 0 0 0 0 0 0 0 0 0 0 0 0 0 0 0.25 0"/>
<feBlend mode="normal" in2="BackgroundImageFix" result="effect1_dropShadow_557_90"/>
<feBlend mode="normal" in="SourceGraphic" in2="effect1_dropShadow_557_90" result="shape"/>
</filter>
<filter id="filter3_d_557_90" x="235" y="544" width="138" height="138" filterUnits="userSpaceOnUse" color-interpolation-filters="sRGB">
<feFlood flood-opacity="0" result="BackgroundImageFix"/>
<feColorMatrix in="SourceAlpha" type="matrix" values="0 0 0 0 0 0 0 0 0 0 0 0 0 0 0 0 0 0 127 0" result="hardAlpha"/>
<feOffset dy="4"/>
<feGaussianBlur stdDeviation="2"/>
<feComposite in2="hardAlpha" operator="out"/>
<feColorMatrix type="matrix" values="0 0 0 0 0 0 0 0 0 0 0 0 0 0 0 0 0 0 0.25 0"/>
<feBlend mode="normal" in2="BackgroundImageFix" result="effect1_dropShadow_557_90"/>
<feBlend mode="normal" in="SourceGraphic" in2="effect1_dropShadow_557_90" result="shape"/>
</filter>
<linearGradient id="paint0_linear_557_90" x1="918" y1="525" x2="106" y2="525" gradientUnits="userSpaceOnUse">
<stop stop-color="#2A7AEE"/>
<stop offset="1" stop-color="#F13B35"/>
</linearGradient>
</defs>
</svg>
